<svg width="62" height="37" viewBox="0 0 62 37" fill="none" xmlns="http://www.w3.org/2000/svg">
<path d="M11.3761 27.4086C11.3708 26.6132 11.428 26.0914 11.623 25.3945C11.7275 25.0212 11.9376 24.6872 12.2088 24.4102C12.4316 24.1826 12.8065 24.2135 12.989 24.4745L13.842 25.6943C14.4269 26.5308 15.2443 27.1966 16.2182 27.5017C17.1617 27.7973 18.1044 27.9725 19.2708 27.8382C20.7975 27.7836 21.0243 27.6944 22.2245 27.4824C22.51 27.432 22.7926 27.362 23.0632 27.258C24.6666 26.6416 25.9955 25.8221 27.3567 24.8312L31.12 21.3716C31.4137 21.1016 31.7335 20.8552 32.0998 20.6971C32.5897 20.4858 33.0004 20.4178 33.4472 20.5108C34.1926 20.666 34.7223 21.2966 35.1384 21.9342L35.3176 22.2087C35.7014 22.7968 36.5796 22.7427 36.8884 22.1119C37.2554 21.362 37.7916 20.6177 38.6083 20.4442C39.0835 20.3432 39.5434 20.4085 40.1029 20.6311C40.5867 20.8236 40.9995 21.1546 41.3638 21.5266L44.269 24.4942C44.4885 24.7184 44.7284 24.9218 44.9867 25.0998C46.1781 25.9208 46.8821 26.3619 47.9633 26.9791C49.1669 27.7235 49.7368 27.9153 50.8498 28.2548C51.946 28.5674 52.3549 28.9116 53.5565 28.9382C54.3381 29.0327 55.0085 29.0125 55.6547 28.949C56.9308 28.8238 58.0954 28.1497 58.9196 27.1675L59.6887 26.2509C59.9228 25.9719 60.3599 25.9981 60.559 26.3031C60.8469 26.7442 61.0001 27.2595 61.0001 27.7863V28.8526C61.0001 29.3195 60.9393 29.7857 60.7969 30.2304C60.4337 31.364 60.0735 32.0653 59.318 32.993C58.482 33.9175 57.8941 34.4064 56.7164 34.9794C56.4902 35.0895 56.2527 35.1765 56.01 35.243C54.1157 35.7617 52.8224 35.9146 50.4866 36C48.2493 35.8978 46.9636 35.7227 44.599 35.1409C42.8109 34.6054 41.8923 34.2274 40.3935 33.4226C39.4848 32.9777 38.9435 32.591 38.185 31.6705C37.9713 31.4113 37.7958 31.1227 37.6481 30.8209L37.0863 29.6731C36.7206 28.926 35.6556 28.926 35.2899 29.6731L34.789 30.6965C34.6011 31.0804 34.368 31.4417 34.079 31.7566C33.3859 32.5115 33.0367 32.7312 32.128 33.4226C31.427 33.8836 30.8694 34.0788 30.0979 34.4054C29.2487 34.7615 28.3303 34.9298 27.3049 35.0861C27.0621 35.1231 26.8167 35.1409 26.5711 35.1409H22.6543C21.3076 35.0962 20.5684 35.031 19.2708 34.861C17.9927 34.5418 17.2765 34.3428 16.002 33.8522C14.5205 33.1783 13.7825 32.586 12.9212 31.6942C12.3401 31.0925 11.9453 30.3354 11.7094 29.5329C11.5019 28.8271 11.3495 28.2477 11.3761 27.4086Z" fill="#94CFC1" stroke="#054939"/>
<path d="M1 10.0232V7.28955L12.7293 8.20076L11.8271 12.7568L1 10.0232Z" fill="#94CFC1" stroke="#033C2E"/>
<path d="M33.4326 11.3899C33.4326 16.3239 28.6873 20.4576 22.6544 20.4576C16.6215 20.4576 11.8762 16.3239 11.8762 11.3899C11.8762 6.45595 16.6215 2.32227 22.6544 2.32227C28.6873 2.32227 33.4326 6.45595 33.4326 11.3899Z" fill="#94CFC1" stroke="#033C2E"/>
<path d="M60.4998 11.8457C60.4998 16.7797 55.7545 20.9134 49.7216 20.9134C43.6887 20.9134 38.9434 16.7797 38.9434 11.8457C38.9434 6.91175 43.6887 2.77808 49.7216 2.77808C55.7545 2.77808 60.4998 6.91175 60.4998 11.8457Z" fill="#94CFC1" stroke="#033C2E"/>
<path d="M33.9324 12.7568V10.4788H38.4437V12.7568H33.9324Z" fill="#94CFC1" stroke="#033C2E"/>
<path d="M31.1765 11.618C31.1765 15.4121 27.4501 18.6355 22.6539 18.6355C17.8577 18.6355 14.1313 15.4121 14.1313 11.618C14.1313 7.82397 17.8577 4.60059 22.6539 4.60059C27.4501 4.60059 31.1765 7.82397 31.1765 11.618Z" fill="#033C2E" stroke="#033B2E"/>
<path d="M58.6953 12.0736C58.6953 15.8677 54.9689 19.0911 50.1727 19.0911C45.3765 19.0911 41.6501 15.8677 41.6501 12.0736C41.6501 8.27953 45.3765 5.05615 50.1727 5.05615C54.9689 5.05615 58.6953 8.27953 58.6953 12.0736Z" fill="#033C2E" stroke="#033B2E"/>
<path d="M48.594 18.9076L57.6166 8.42871" stroke="#94CFC1"/>
<path d="M26.4885 5.23926L16.1125 16.1737C17.0194 17.2804 17.9683 17.7955 20.1727 18.6796L29.8719 7.51727C28.8012 6.24813 28.0541 5.75902 26.4885 5.23926Z" fill="#94CFC1" stroke="#033C2E" stroke-width="0.5"/>
<path d="M53.7819 5.46729L43.406 16.4018C44.3129 17.5085 45.2618 18.0235 47.4662 18.9076L57.1654 7.7453C56.0947 6.47616 55.3475 5.98705 53.7819 5.46729Z" fill="#94CFC1" stroke="#033C2E" stroke-width="0.5"/>
<path d="M20.6239 0C18.6308 0.22631 17.8099 0.576941 16.5637 1.36681C18.1493 1.16028 19.0383 1.11693 20.6239 1.36681L23.5562 2.27802C25.5992 3.12701 26.6759 3.75575 28.5186 5.23944C29.4069 6.1216 29.8999 6.62118 30.7742 7.51745L30.7939 7.5141C31.565 7.38256 32.0034 7.30778 32.1276 6.15064C32.0524 5.49026 31.8706 5.21354 31.4509 4.78383C29.4488 3.16723 28.2236 2.40557 25.8118 1.36681C23.8832 0.505383 22.7361 0.244191 20.6239 0Z" fill="#054939"/>
<path d="M21.0754 18.6798L30.098 8.20093" stroke="#94CFC1"/>
<path d="M42.2784 6.83426C41.7868 6.06692 41.6893 5.59235 42.2784 4.55624C44.0152 2.90281 45.3285 2.17147 48.1431 1.13922L51.9777 0.455811H53.3311L54.0078 1.13922C53.4305 1.60517 53.0871 1.90004 52.4288 2.50602C51.1136 2.11877 50.3113 2.16851 48.8198 2.50602C46.1773 3.91038 44.8875 4.85247 42.9551 6.83426H42.2784Z" fill="#054939"/>
</svg>
