<svg width="69" height="21" viewBox="0 0 69 21" fill="none" xmlns="http://www.w3.org/2000/svg">
<path d="M0.00419587 9C-0.00318003 7.88746 0.0765902 7.15816 0.348748 6.18259C0.493445 5.66392 0.784252 5.19955 1.16007 4.8139C1.4704 4.49546 1.99402 4.5386 2.24804 4.90353L3.78523 7.11186C4.36895 7.95045 5.18644 8.62587 6.17806 8.87212C7.52844 9.20746 8.70797 9.21059 10.529 9C12.726 8.92107 13.9824 8.79033 15.9443 8.4713C16.2315 8.42458 16.5147 8.35155 16.7883 8.25244C19.0154 7.44571 20.2883 6.81487 22.2232 5.4L26.8111 1.16293C27.6207 0.415222 28.6823 0 29.7843 0C31.268 0 32.651 0.750701 33.4593 1.99487L33.7139 2.38681C34.0606 2.92047 34.857 2.87153 35.1358 2.29943C35.8213 0.892614 37.2492 0 38.8141 0H39.0493C40.2543 0 41.4082 0.486706 42.2492 1.34968L45.8669 5.06195C46.086 5.28682 46.326 5.49098 46.5839 5.67007C48.3334 6.88496 49.3254 7.51196 50.874 8.4C52.5474 9.43983 53.3397 9.70767 54.8872 10.1818C56.4114 10.6184 56.98 11.0992 58.6506 11.1364C60.0497 11.3063 61.1926 11.2107 62.3374 11.0625C63.612 10.8976 64.782 10.2497 65.6059 9.26336L67.1734 7.38674C67.4999 6.99584 68.1116 7.0325 68.389 7.45961C68.7878 8.07335 69 8.78954 69 9.52143V11.2992C69 11.7641 68.9377 12.2282 68.8013 12.6727C68.2662 14.4172 67.7697 15.4325 66.6612 16.8C65.468 18.1255 64.6382 18.81 62.9117 19.6386C62.684 19.7479 62.4458 19.8358 62.2025 19.9036C59.4913 20.6596 57.6874 20.8786 54.3822 21C51.2716 20.8573 49.4841 20.6126 46.1963 19.8C43.7102 19.0521 42.4331 18.5241 40.3492 17.4C38.9181 16.6962 38.1425 16.0965 36.8409 14.4L34.9085 11.7035C34.709 11.4251 34.2951 11.4251 34.0957 11.7035L32.1632 14.4C31.1805 15.9547 30.7214 16.1841 28.857 17.4C27.8824 18.0439 27.1071 18.3165 26.0344 18.7727C24.815 19.2865 23.493 19.5204 22.0104 19.745C21.7665 19.7819 21.5199 19.8 21.2733 19.8H15.6851L11.5254 19.4543C11.1634 19.4243 10.8058 19.3548 10.4588 19.2472L6.43601 18C4.18026 16.9693 3.1643 16.0752 1.80536 14.6189C1.23607 14.0088 0.844817 13.2556 0.610826 12.4546C0.253141 11.2303 -0.038697 10.359 0.00419587 9Z" fill="#054939"/>
</svg>
